<?xml version="1.0" encoding="UTF-8" standalone="no"?>
<!-- Created with Inkscape (http://www.inkscape.org/) -->

<svg
   width="79.25mm"
   height="79.25mm"
   version="1.1"
   viewBox="0 0 79.250001 79.250001"
   xml:space="preserve"
   id="svg9"
   sodipodi:docname="not-safe.svg"
   inkscape:version="1.4.2 (ebf0e940d0, 2025-05-08)"
   xmlns:inkscape="http://www.inkscape.org/namespaces/inkscape"
   xmlns:sodipodi="http://sodipodi.sourceforge.net/DTD/sodipodi-0.dtd"
   xmlns="http://www.w3.org/2000/svg"
   xmlns:svg="http://www.w3.org/2000/svg"><sodipodi:namedview
     id="namedview9"
     pagecolor="#ffffff"
     bordercolor="#000000"
     borderopacity="0.25"
     inkscape:showpageshadow="2"
     inkscape:pageopacity="0.0"
     inkscape:pagecheckerboard="0"
     inkscape:deskcolor="#d1d1d1"
     inkscape:document-units="mm"
     inkscape:zoom="1.0234375"
     inkscape:cx="41.526717"
     inkscape:cy="162.19847"
     inkscape:window-width="1854"
     inkscape:window-height="1043"
     inkscape:window-x="66"
     inkscape:window-y="0"
     inkscape:window-maximized="1"
     inkscape:current-layer="svg9" /><defs
     id="defs4"><filter
       id="filter13"
       x="-0.11756271"
       y="-0.11756271"
       width="1.2351254"
       height="1.2351254"
       color-interpolation-filters="sRGB"><feGaussianBlur
         stdDeviation="3.8820187"
         id="feGaussianBlur1" /></filter><linearGradient
       id="linearGradient33"
       x1="56.018002"
       x2="153.99001"
       y1="99.628998"
       y2="197.60001"
       gradientUnits="userSpaceOnUse"><stop
         offset=".48014"
         id="stop1" /><stop
         stop-opacity="0"
         offset="1"
         id="stop2" /></linearGradient><linearGradient
       id="linearGradient34"
       x1="56.018002"
       x2="153.99001"
       y1="99.628998"
       y2="197.60001"
       gradientUnits="userSpaceOnUse"><stop
         stop-color="#fff"
         stop-opacity="0"
         offset=".49316"
         id="stop3" /><stop
         stop-color="#fff"
         offset="1"
         id="stop4" /></linearGradient><filter
       id="filter38"
       x="-0.11753358"
       y="-0.11753358"
       width="1.2350672"
       height="1.2350672"
       color-interpolation-filters="sRGB"><feGaussianBlur
         stdDeviation="3.8810567"
         id="feGaussianBlur4" /></filter></defs><g
     id="g1"><circle
       cx="39.625"
       cy="39.625"
       r="37.125"
       fill="#ff0000"
       stroke="#800000"
       stroke-width="5"
       style="stroke-linecap:square;stroke-linejoin:round;paint-order:normal"
       id="circle5" /><g
       transform="translate(-65.374999,-108.875)"
       fill="#ffffff"
       id="g7"><path
         id="path6"
         d="m 124.94555,125.90913 c -0.0697,8.1e-4 -0.14198,0.006 -0.21652,0.0145 -0.88768,0.10482 -1.15043,0.20592 -1.29915,0.50075 -0.1064,0.211 -0.69039,0.5987 -2.94659,1.9575 -0.99975,0.60208 -2.11032,1.30175 -2.95124,1.85467 l -0.0868,1.66088 0.46767,1.47846 c 2.37604,-2.34045 5.93062,-5.01672 6.72672,-4.97179 0.32145,0.0182 0.37505,-0.0114 0.77773,-0.4315 0.53045,-0.55335 0.78188,-1.18902 0.59686,-1.50947 -0.21385,-0.37049 -0.58074,-0.55963 -1.06867,-0.55397 z m -10.60659,6.75669 c -2.87319,2.50614 -4.90696,5.27223 -6.82077,9.17257 -1.0494,2.1385 -1.60391,3.50477 -3.51761,8.66717 -0.34441,0.9289 -0.91264,2.37253 -1.26246,3.20808 -1.2535,2.9941 -1.79976,3.80014 -2.748667,4.05608 -0.6155,0.16601 -1.349763,0.0137 -1.903243,-0.39481 -0.16928,-0.12495 -0.745365,-0.71466 -1.408183,-1.43454 l -1.46606,6.33347 4.370434,4.92053 -1.38612,3.39731 0.0615,-0.0217 5.17e-4,0.001 c 1.0711,-0.3844 2.838232,-1.40606 3.750152,-2.16782 1.64051,-1.3704 3.14706,-3.38962 4.10157,-5.49682 1.1215,-2.476 1.82272,-4.41379 3.45612,-9.55549 0.5028,-1.5828 1.16762,-3.62123 1.47743,-4.52996 0.30979,-0.9087 0.91459,-2.86685 1.34409,-4.35115 1.2459,-4.30572 2.04095,-6.49885 3.12592,-8.21397 l -1.28416,-2.67788 0.10955,-0.91209 z m -21.002331,19.95641 c -0.5112,0.0164 -2.626504,1.09688 -5.135604,2.62258 -3.36287,2.0449 -4.412785,2.86852 -4.261755,3.34398 0.5179,1.6306 1.984835,4.8654 3.006535,6.6306 1.4085,2.4335 2.286027,3.46958 3.847827,4.54288 0.8214,0.56449 1.133637,0.70094 2.309937,1.00924 0.895731,0.23477 1.742178,0.33868 2.575036,0.31057 l 0.98046,-2.93738 -4.662406,-4.18983 4.63641,-8.06307 c -0.187535,-0.20414 -0.381135,-0.41797 -0.574125,-0.63407 -1.96545,-2.20085 -2.424195,-2.6455 -2.722315,-2.6355 z"
         sodipodi:nodetypes="ccccccccscsccccssccccccccsscccccccssscccccccc" /></g><path
       d="m 20.735001,7.3249994 a 37.607,37.607 0 0 0 -5.4791,3.8798996 l 4.0464,13.232 6.0706,-0.59256 2.8131,11.401 7.9948,1.7766 1.7772,15.694 12.733,0.88832 1.0365,13.325 7.5065,5.0043 a 37.607,37.607 0 0 0 4.7614,-3.4439 l -5.9015,-4.9656 -1.3322,-14.51 -14.51,-2.0724 1.1846,-15.25 -10.216,-1.1846 -0.29628,-13.325 -9.772,1.3327 z"
       fill="#800000"
       style="paint-order:stroke markers fill"
       id="path8" /></g></svg>
