<?xml version="1.0" encoding="UTF-8" standalone="no"?>
<!-- Created with Inkscape (http://www.inkscape.org/) -->

<svg
   width="79.25mm"
   height="79.25mm"
   version="1.1"
   viewBox="0 0 79.250001 79.250001"
   xml:space="preserve"
   id="svg9"
   sodipodi:docname="safe.svg"
   inkscape:version="1.4.2 (ebf0e940d0, 2025-05-08)"
   xmlns:inkscape="http://www.inkscape.org/namespaces/inkscape"
   xmlns:sodipodi="http://sodipodi.sourceforge.net/DTD/sodipodi-0.dtd"
   xmlns="http://www.w3.org/2000/svg"
   xmlns:svg="http://www.w3.org/2000/svg"><sodipodi:namedview
     id="namedview9"
     pagecolor="#ffffff"
     bordercolor="#000000"
     borderopacity="0.25"
     inkscape:showpageshadow="2"
     inkscape:pageopacity="0.0"
     inkscape:pagecheckerboard="0"
     inkscape:deskcolor="#d1d1d1"
     inkscape:document-units="mm"
     inkscape:zoom="0.53255209"
     inkscape:cx="-74.171148"
     inkscape:cy="334.2396"
     inkscape:window-width="1854"
     inkscape:window-height="1043"
     inkscape:window-x="66"
     inkscape:window-y="0"
     inkscape:window-maximized="1"
     inkscape:current-layer="svg9" /><defs
     id="defs4"><filter
       id="filter13"
       x="-0.11756271"
       y="-0.11756271"
       width="1.2351254"
       height="1.2351254"
       color-interpolation-filters="sRGB"><feGaussianBlur
         stdDeviation="3.8820187"
         id="feGaussianBlur1" /></filter><linearGradient
       id="linearGradient15"
       x1="56.018002"
       x2="153.99001"
       y1="99.628998"
       y2="197.60001"
       gradientUnits="userSpaceOnUse"><stop
         offset=".48014"
         id="stop1" /><stop
         stop-opacity="0"
         offset="1"
         id="stop2" /></linearGradient><linearGradient
       id="linearGradient16"
       x1="56.018002"
       x2="153.99001"
       y1="99.628998"
       y2="197.60001"
       gradientUnits="userSpaceOnUse"><stop
         stop-color="#fff"
         stop-opacity="0"
         offset=".49316"
         id="stop3" /><stop
         stop-color="#fff"
         offset="1"
         id="stop4" /></linearGradient></defs><g
     id="g9"><circle
       cx="39.625"
       cy="39.625"
       r="37.125"
       fill="#00ff00"
       stroke="#008000"
       stroke-width="5"
       style="stroke-linecap:square;stroke-linejoin:round;paint-order:normal"
       id="circle5" /><path
       d="m 32.883002,61.694999 c -1.7159,0.6158 -3.3331,0.67906 -5.1546,0.20165 -1.1763,-0.3083 -1.4885,-0.44471 -2.3099,-1.0092 -1.5618,-1.0733 -2.4392,-2.1093 -3.8477,-4.5428 -1.0217,-1.7652 -2.4884,-5.0002 -3.0063,-6.6308 -0.15103,-0.47546 0.89883,-1.2993 4.2617,-3.3442 2.5091,-1.5257 4.6242,-2.6058 5.1354,-2.6222 0.29812,-0.01 0.75705,0.43465 2.7225,2.6355 0.89429,1.0014 1.8066,1.954 2.0273,2.1169 0.55348,0.40852 1.2878,0.56085 1.9033,0.39484 0.94891,-0.25594 1.4951,-1.0618 2.7486,-4.0559 0.34982,-0.83555 0.91779,-2.2793 1.2622,-3.2082 1.9137,-5.1624 2.4682,-6.5289 3.5176,-8.6674 2.3524,-4.7942 4.8859,-7.8744 8.937,-10.865 0.66797,-0.49316 2.4806,-1.6592 4.0282,-2.5912 2.2562,-1.3588 2.84,-1.7466 2.9464,-1.9576 0.14872,-0.29483 0.41162,-0.3962 1.2993,-0.50102 0.59636,-0.0704 1.0408,0.11617 1.2852,0.53959 0.18502,0.32045 -0.0663,0.95625 -0.59675,1.5096 -0.40268,0.42005 -0.45619,0.44975 -0.77764,0.43159 -0.91075,-0.0514 -5.4323,3.4584 -7.6686,5.9528 -1.9877,2.2171 -2.8483,4.1159 -4.5836,10.113 -0.42951,1.4843 -1.0344,3.4423 -1.3442,4.351 -0.30981,0.90873 -0.97469,2.9473 -1.4775,4.5301 -1.6334,5.1417 -2.3342,7.0794 -3.4557,9.5554 -0.95451,2.1072 -2.4614,4.1265 -4.1019,5.4969 -0.91193,0.76176 -2.6791,1.7832 -3.7502,2.1676 z"
       id="path6"
       style="fill:#ffffff" /><path
       d="m 21.007002,42.544999 c 0,0 -2.9861,-5.6109 -2.7771,-8.6236 0.16664,-2.4021 2.8801,-4.1107 3.1425,-6.5042 0.24273,-2.2144 -1.5347,-6.5043 -1.5347,-6.5043 0,0 4.7674,5.0306 4.7503,8.1851 -0.01213,2.2393 -2.8206,3.62 -3.4348,5.7734 -0.70176,2.4602 -0.14616,7.6736 -0.14616,7.6736 z"
       style="fill:#ffffff;paint-order:stroke markers fill"
       id="path7" /></g></svg>
