<?xml version="1.0" encoding="UTF-8"?>
<!-- Created with Inkscape (http://www.inkscape.org/) -->
<svg width="101.6mm" height="101.6mm" version="1.1" viewBox="0 0 101.6 101.6" xml:space="preserve" xmlns="http://www.w3.org/2000/svg" xmlns:xlink="http://www.w3.org/1999/xlink"><defs><filter id="filter13" x="-.11756" y="-.11756" width="1.2351" height="1.2351" color-interpolation-filters="sRGB"><feGaussianBlur stdDeviation="3.8820187"/></filter><linearGradient id="linearGradient15" x1="56.018" x2="153.99" y1="99.629" y2="197.6" gradientUnits="userSpaceOnUse"><stop offset=".48014"/><stop stop-opacity="0" offset="1"/></linearGradient><linearGradient id="linearGradient16" x1="56.018" x2="153.99" y1="99.629" y2="197.6" gradientUnits="userSpaceOnUse"><stop stop-color="#fff" stop-opacity="0" offset=".49316"/><stop stop-color="#fff" offset="1"/></linearGradient></defs><g transform="translate(-54.198 -106.79)"><g transform="translate(0 9.0931)"><g stroke-linecap="square" stroke-linejoin="round"><path transform="matrix(1.038 0 0 1.038 -3.9914 -5.645)" d="m105 108.88c-21.855 0-39.625 17.77-39.625 39.625-1e-6 21.855 17.77 39.625 39.625 39.625 21.855 0 39.625-17.77 39.625-39.625s-17.77-39.625-39.625-39.625zm9.7472 6.3856c2.0604 0.60128 4.0411 1.3886 5.9221 2.3425-1.881-0.95387-3.8617-1.7412-5.9221-2.3425zm-40.644 17.571c-0.95387 1.881-1.7412 3.8612-2.3425 5.9216 0.60127-2.0604 1.3886-4.0406 2.3425-5.9216z" fill="url(#linearGradient15)" filter="url(#filter13)" stop-color="#000000" stroke-width=".96338" style="mix-blend-mode:normal"/><path transform="matrix(1.038 0 0 1.038 -3.9914 -5.645)" d="m105 108.88c-21.855 0-39.625 17.77-39.625 39.625-1e-6 21.855 17.77 39.625 39.625 39.625 21.855 0 39.625-17.77 39.625-39.625s-17.77-39.625-39.625-39.625zm9.7472 6.3856c2.0604 0.60128 4.0411 1.3886 5.9221 2.3425-1.881-0.95387-3.8617-1.7412-5.9221-2.3425zm-40.644 17.571c-0.95387 1.881-1.7412 3.8612-2.3425 5.9216 0.60127-2.0604 1.3886-4.0406 2.3425-5.9216z" fill="url(#linearGradient16)" filter="url(#filter13)" stop-color="#000000" stroke-width=".96338" style="mix-blend-mode:normal"/><circle cx="105" cy="148.5" r="37.125" fill="#0f0" stroke="#008000" stroke-width="5" style="paint-order:normal"/></g><g fill="#fff"><path d="m98.258 170.57c-1.7159 0.6158-3.3331 0.67906-5.1546 0.20165-1.1763-0.3083-1.4885-0.44471-2.3099-1.0092-1.5618-1.0733-2.4392-2.1093-3.8477-4.5428-1.0217-1.7652-2.4884-5.0002-3.0063-6.6308-0.15103-0.47546 0.89883-1.2993 4.2617-3.3442 2.5091-1.5257 4.6242-2.6058 5.1354-2.6222 0.29812-0.01 0.75705 0.43465 2.7225 2.6355 0.89429 1.0014 1.8066 1.954 2.0273 2.1169 0.55348 0.40852 1.2878 0.56085 1.9033 0.39484 0.94891-0.25594 1.4951-1.0618 2.7486-4.0559 0.34982-0.83555 0.91779-2.2793 1.2622-3.2082 1.9137-5.1624 2.4682-6.5289 3.5176-8.6674 2.3524-4.7942 4.8859-7.8744 8.937-10.865 0.66797-0.49316 2.4806-1.6592 4.0282-2.5912 2.2562-1.3588 2.84-1.7466 2.9464-1.9576 0.14872-0.29483 0.41162-0.3962 1.2993-0.50102 0.59636-0.0704 1.0408 0.11617 1.2852 0.53959 0.18502 0.32045-0.0663 0.95625-0.59675 1.5096-0.40268 0.42005-0.45619 0.44975-0.77764 0.43159-0.91075-0.0514-5.4323 3.4584-7.6686 5.9528-1.9877 2.2171-2.8483 4.1159-4.5836 10.113-0.42951 1.4843-1.0344 3.4423-1.3442 4.351-0.30981 0.90873-0.97469 2.9473-1.4775 4.5301-1.6334 5.1417-2.3342 7.0794-3.4557 9.5554-0.95451 2.1072-2.4614 4.1265-4.1019 5.4969-0.91193 0.76176-2.6791 1.7832-3.7502 2.1676z"/><path d="m86.382 151.42s-2.9861-5.6109-2.7771-8.6236c0.16664-2.4021 2.8801-4.1107 3.1425-6.5042 0.24273-2.2144-1.5347-6.5043-1.5347-6.5043s4.7674 5.0306 4.7503 8.1851c-0.01213 2.2393-2.8206 3.62-3.4348 5.7734-0.70176 2.4602-0.14616 7.6736-0.14616 7.6736z" style="paint-order:stroke markers fill"/></g></g></g></svg>
