<?xml version="1.0" encoding="UTF-8" standalone="no"?>
<!-- Created with Inkscape (http://www.inkscape.org/) -->

<svg
   width="79.25mm"
   height="79.25mm"
   version="1.1"
   viewBox="0 0 79.250001 79.250001"
   xml:space="preserve"
   id="svg8"
   sodipodi:docname="warning.svg"
   inkscape:version="1.4.2 (ebf0e940d0, 2025-05-08)"
   xmlns:inkscape="http://www.inkscape.org/namespaces/inkscape"
   xmlns:sodipodi="http://sodipodi.sourceforge.net/DTD/sodipodi-0.dtd"
   xmlns="http://www.w3.org/2000/svg"
   xmlns:svg="http://www.w3.org/2000/svg"><sodipodi:namedview
     id="namedview8"
     pagecolor="#ffffff"
     bordercolor="#000000"
     borderopacity="0.25"
     inkscape:showpageshadow="2"
     inkscape:pageopacity="0.0"
     inkscape:pagecheckerboard="0"
     inkscape:deskcolor="#d1d1d1"
     inkscape:document-units="mm"
     inkscape:zoom="0.75314239"
     inkscape:cx="-92.280027"
     inkscape:cy="225.72093"
     inkscape:window-width="1854"
     inkscape:window-height="1043"
     inkscape:window-x="66"
     inkscape:window-y="0"
     inkscape:window-maximized="1"
     inkscape:current-layer="svg8" /><defs
     id="defs4"><filter
       id="filter39"
       x="-0.110104"
       y="-0.12610497"
       width="1.220208"
       height="1.2522099"
       color-interpolation-filters="sRGB"><feGaussianBlur
         stdDeviation="3.6356642"
         id="feGaussianBlur1" /></filter><linearGradient
       id="linearGradient40"
       x1="273.26001"
       x2="372.89999"
       y1="112.86"
       y2="186.86"
       gradientUnits="userSpaceOnUse"><stop
         offset=".50711"
         id="stop1" /><stop
         stop-opacity="0"
         offset="1"
         id="stop2" /></linearGradient><linearGradient
       id="linearGradient43"
       x1="273.26001"
       x2="372.89999"
       y1="112.86"
       y2="186.86"
       gradientUnits="userSpaceOnUse"><stop
         stop-color="#fff"
         stop-opacity="0"
         offset=".49316"
         id="stop3" /><stop
         stop-color="#fff"
         offset="1"
         id="stop4" /></linearGradient></defs><g
     id="g8"><circle
       cx="39.625"
       cy="39.625"
       r="37.125"
       fill="#00ff00"
       stroke="#008000"
       stroke-width="5"
       style="fill:#ffcc00;fill-opacity:1;stroke:#d4aa00;stroke-linecap:square;stroke-linejoin:round;stroke-opacity:1;paint-order:normal"
       id="circle5" /><path
       d="m 38.478721,58.896383 c -1.3814,-0.51508 -2.3008,-1.5555 -2.5853,-2.9256 -0.47763,-2.3007 1.3354,-4.4751 3.7315,-4.4751 2.8208,0 4.6405,2.8954 3.4058,5.419 -0.40976,0.83752 -0.90301,1.3269 -1.797,1.783 -0.71643,0.36549 -2.0497,0.46164 -2.7549,0.19868 z m 0.40083,-10.72 c -0.48021,-0.15221 -1.1353,-0.75042 -1.421,-1.2976 -0.28376,-0.54351 -2.4263,-20.871 -2.3531,-22.326 0.0657,-1.305 0.42348,-2.1337 1.299,-3.0083 1.0157,-1.0147 1.7975,-1.34 3.2204,-1.34 1.4229,0 2.2047,0.32526 3.2204,1.34 0.8755,0.87461 1.2333,1.7033 1.299,3.0083 0.0338,0.67115 -0.33532,4.7197 -1.048,11.495 -1.2049,11.455 -1.1474,11.137 -2.1388,11.817 -0.51244,0.35113 -1.4902,0.49765 -2.078,0.31137 z"
       fill="#ffffff"
       id="path7" /></g></svg>
