<?xml version="1.0" encoding="UTF-8" standalone="no"?>
<!-- Created with Inkscape (http://www.inkscape.org/) -->

<svg
   width="101.6045mm"
   height="101.60451mm"
   viewBox="0 0 101.6045 101.60451"
   version="1.1"
   id="svg1"
   xml:space="preserve"
   xmlns:xlink="http://www.w3.org/1999/xlink"
   xmlns="http://www.w3.org/2000/svg"
   xmlns:svg="http://www.w3.org/2000/svg"><defs
     id="defs1"><linearGradient
       id="linearGradient42"><stop
         style="stop-color:#000000;stop-opacity:1;"
         offset="0.50710571"
         id="stop41" /><stop
         style="stop-color:#000000;stop-opacity:0;"
         offset="1"
         id="stop42" /></linearGradient><linearGradient
       id="linearGradient19"><stop
         style="stop-color:#000000;stop-opacity:0;"
         offset="0.49856374"
         id="stop18" /><stop
         style="stop-color:#f1f1f1;stop-opacity:1;"
         offset="1"
         id="stop19" /></linearGradient><linearGradient
       id="linearGradient14"><stop
         style="stop-color:#000000;stop-opacity:1;"
         offset="0.48013502"
         id="stop16" /><stop
         style="stop-color:#000000;stop-opacity:0;"
         offset="1"
         id="stop17" /></linearGradient><linearGradient
       id="linearGradient14-1"><stop
         style="stop-color:#ffffff;stop-opacity:0;"
         offset="0.49316442"
         id="stop14" /><stop
         style="stop-color:#ffffff;stop-opacity:1;"
         offset="1"
         id="stop15" /></linearGradient><filter
       style="color-interpolation-filters:sRGB"
       id="filter13"
       x="-0.11756281"
       y="-0.1175628"
       width="1.2351256"
       height="1.2351256"><feGaussianBlur
         stdDeviation="3.8820187"
         id="feGaussianBlur13" /></filter><linearGradient
       xlink:href="#linearGradient14"
       id="linearGradient11"
       gradientUnits="userSpaceOnUse"
       x1="56.018421"
       y1="99.629135"
       x2="153.99411"
       y2="197.60481" /><linearGradient
       xlink:href="#linearGradient14-1"
       id="linearGradient12"
       gradientUnits="userSpaceOnUse"
       x1="56.018421"
       y1="99.629135"
       x2="153.99411"
       y2="197.60481" /></defs><g
     id="layer1"
     transform="translate(-340.69981,-106.79086)"><g
       id="g27"><path
         id="path1"
         style="baseline-shift:baseline;display:inline;overflow:visible;mix-blend-mode:normal;vector-effect:none;fill:url(#linearGradient11);fill-opacity:1;stroke-width:0.963379;stroke-linecap:square;stroke-linejoin:round;filter:url(#filter13);enable-background:accumulate;stop-color:#000000"
         d="m 104.99979,108.87501 c -21.854895,0 -39.62497,17.77007 -39.624969,39.62497 -10e-7,21.8549 17.770074,39.62497 39.624969,39.62497 21.8549,0 39.62497,-17.77007 39.62497,-39.62497 0,-21.8549 -17.77007,-39.62497 -39.62497,-39.62497 z m 9.74721,6.38565 c 2.06045,0.60128 4.04112,1.38863 5.92212,2.3425 -1.881,-0.95387 -3.86167,-1.74122 -5.92212,-2.3425 z m -40.64403,17.57051 c -0.953869,1.88098 -1.741218,3.86117 -2.342492,5.9216 0.601272,-2.06043 1.388626,-4.04063 2.342492,-5.9216 z"
         transform="matrix(1.0380133,0,0,1.0380133,282.51089,3.4481649)" /><path
         id="path5"
         style="baseline-shift:baseline;display:inline;overflow:visible;mix-blend-mode:normal;vector-effect:none;fill:url(#linearGradient12);fill-opacity:1;stroke-width:0.963379;stroke-linecap:square;stroke-linejoin:round;filter:url(#filter13);enable-background:accumulate;stop-color:#000000"
         d="m 104.99979,108.87501 c -21.854895,0 -39.62497,17.77007 -39.624969,39.62497 -10e-7,21.8549 17.770074,39.62497 39.624969,39.62497 21.8549,0 39.62497,-17.77007 39.62497,-39.62497 0,-21.8549 -17.77007,-39.62497 -39.62497,-39.62497 z m 9.74721,6.38565 c 2.06045,0.60128 4.04112,1.38863 5.92212,2.3425 -1.881,-0.95387 -3.86167,-1.74122 -5.92212,-2.3425 z m -40.64403,17.57051 c -0.953869,1.88098 -1.741218,3.86117 -2.342492,5.9216 0.601272,-2.06043 1.388626,-4.04063 2.342492,-5.9216 z"
         transform="matrix(1.0380133,0,0,1.0380133,282.51089,3.4481649)" /><circle
         style="fill:#cccccc;stroke:#4d4d4d;stroke-width:5;stroke-linecap:square;stroke-linejoin:round;stroke-dasharray:none;paint-order:normal"
         id="circle5"
         cx="391.50229"
         cy="157.59314"
         r="37.125408" /><text
         xml:space="preserve"
         style="font-style:normal;font-variant:normal;font-weight:normal;font-stretch:normal;font-size:79.3521px;line-height:1.25;font-family:Caladea;-inkscape-font-specification:Caladea;text-align:center;text-decoration-color:#000000;letter-spacing:0px;word-spacing:0px;writing-mode:lr-tb;direction:ltr;text-anchor:middle;fill:#ffffff;stroke:#ffffff;stroke-width:0.264583;-inkscape-stroke:none"
         x="385.10388"
         y="184.73782"
         id="text25"
         transform="scale(1.0166148,0.98365677)"><tspan
           id="tspan25"
           style="font-style:normal;font-variant:normal;font-weight:normal;font-stretch:normal;font-family:Manjari;-inkscape-font-specification:Manjari;fill:#ffffff;stroke:#ffffff;stroke-width:0.264583"
           x="385.10388"
           y="184.73782">?</tspan></text></g></g></svg>
