<?xml version="1.0" encoding="UTF-8" standalone="no"?>
<!-- Created with Inkscape (http://www.inkscape.org/) -->

<svg
   width="79.251mm"
   height="79.251mm"
   version="1.1"
   viewBox="0 0 79.251 79.251"
   xml:space="preserve"
   id="svg3"
   sodipodi:docname="pipe-safe-logo.svg"
   inkscape:version="1.4.2 (ebf0e940d0, 2025-05-08)"
   xmlns:inkscape="http://www.inkscape.org/namespaces/inkscape"
   xmlns:sodipodi="http://sodipodi.sourceforge.net/DTD/sodipodi-0.dtd"
   xmlns="http://www.w3.org/2000/svg"
   xmlns:svg="http://www.w3.org/2000/svg"><defs
     id="defs3" /><sodipodi:namedview
     id="namedview3"
     pagecolor="#ffffff"
     bordercolor="#000000"
     borderopacity="0.25"
     inkscape:showpageshadow="2"
     inkscape:pageopacity="0.0"
     inkscape:pagecheckerboard="0"
     inkscape:deskcolor="#d1d1d1"
     inkscape:document-units="mm"
     inkscape:zoom="2.6240994"
     inkscape:cx="149.57513"
     inkscape:cy="149.76567"
     inkscape:window-width="1854"
     inkscape:window-height="1011"
     inkscape:window-x="1986"
     inkscape:window-y="32"
     inkscape:window-maximized="1"
     inkscape:current-layer="svg3" /><g
     transform="translate(-65.375 -117.97)"
     id="g3"><circle
       cx="105"
       cy="157.59"
       r="37.125"
       fill="#0f0"
       stroke="#008000"
       stroke-linecap="square"
       stroke-linejoin="round"
       stroke-width="5"
       style="paint-order:normal"
       id="circle1" /><g
       transform="translate(0 9.0931)"
       fill="#fff"
       id="g2"><path
         d="m98.258 170.57c-1.7159 0.6158-3.3331 0.67906-5.1546 0.20165-1.1763-0.3083-1.4885-0.44471-2.3099-1.0092-1.5618-1.0733-2.4392-2.1093-3.8477-4.5428-1.0217-1.7652-2.4884-5.0002-3.0063-6.6308-0.15103-0.47546 0.89883-1.2993 4.2617-3.3442 2.5091-1.5257 4.6242-2.6058 5.1354-2.6222 0.29812-0.01 0.75705 0.43465 2.7225 2.6355 0.89429 1.0014 1.8066 1.954 2.0273 2.1169 0.55348 0.40852 1.2878 0.56085 1.9033 0.39484 0.94891-0.25594 1.4951-1.0618 2.7486-4.0559 0.34982-0.83555 0.91779-2.2793 1.2622-3.2082 1.9137-5.1624 2.4682-6.5289 3.5176-8.6674 2.3524-4.7942 4.8859-7.8744 8.937-10.865 0.66797-0.49316 2.4806-1.6592 4.0282-2.5912 2.2562-1.3588 2.84-1.7466 2.9464-1.9576 0.14872-0.29483 0.41162-0.3962 1.2993-0.50102 0.59636-0.0704 1.0408 0.11617 1.2852 0.53959 0.18502 0.32045-0.0663 0.95625-0.59675 1.5096-0.40268 0.42005-0.45619 0.44975-0.77764 0.43159-0.91075-0.0514-5.4323 3.4584-7.6686 5.9528-1.9877 2.2171-2.8483 4.1159-4.5836 10.113-0.42951 1.4843-1.0344 3.4423-1.3442 4.351-0.30981 0.90873-0.97469 2.9473-1.4775 4.5301-1.6334 5.1417-2.3342 7.0794-3.4557 9.5554-0.95451 2.1072-2.4614 4.1265-4.1019 5.4969-0.91193 0.76176-2.6791 1.7832-3.7502 2.1676z"
         id="path1" /><path
         d="m 85.967446,151.42 c 0,0 -6.106316,-5.6109 -5.678929,-8.6236 0.340764,-2.4021 5.889555,-4.1107 6.42614,-6.5042 0.496362,-2.2144 -3.138328,-6.5043 -3.138328,-6.5043 0,0 9.74892,5.0306 9.713952,8.1851 -0.0248,2.2393 -5.767883,3.62 -7.023869,5.7734 -1.435038,2.4602 -0.298884,7.6736 -0.298884,7.6736 z"
         style="stroke-width:0.999999;paint-order:stroke markers fill"
         id="path2" /></g></g></svg>
