<?xml version="1.0" encoding="UTF-8" standalone="no"?>
<!-- Created with Inkscape (http://www.inkscape.org/) -->

<svg
   width="501.33762mm"
   height="234.76825mm"
   viewBox="0 0 501.33762 234.76825"
   version="1.1"
   id="svg1"
   xml:space="preserve"
   inkscape:version="1.4.2 (ebf0e940d0, 2025-05-08)"
   sodipodi:docname="pipe-safe-icons.svg"
   xmlns:inkscape="http://www.inkscape.org/namespaces/inkscape"
   xmlns:sodipodi="http://sodipodi.sourceforge.net/DTD/sodipodi-0.dtd"
   xmlns:xlink="http://www.w3.org/1999/xlink"
   xmlns="http://www.w3.org/2000/svg"
   xmlns:svg="http://www.w3.org/2000/svg"><sodipodi:namedview
     id="namedview1"
     pagecolor="#ffffff"
     bordercolor="#000000"
     borderopacity="0.25"
     inkscape:showpageshadow="2"
     inkscape:pageopacity="0.0"
     inkscape:pagecheckerboard="0"
     inkscape:deskcolor="#d1d1d1"
     inkscape:document-units="mm"
     showguides="true"
     inkscape:zoom="0.32"
     inkscape:cx="826.5625"
     inkscape:cy="456.25"
     inkscape:window-width="1854"
     inkscape:window-height="1043"
     inkscape:window-x="66"
     inkscape:window-y="0"
     inkscape:window-maximized="1"
     inkscape:current-layer="layer1" /><defs
     id="defs1"><linearGradient
       id="linearGradient42"
       inkscape:label="Shadow"><stop
         style="stop-color:#000000;stop-opacity:1;"
         offset="0.50710571"
         id="stop41" /><stop
         style="stop-color:#000000;stop-opacity:0;"
         offset="1"
         id="stop42" /></linearGradient><linearGradient
       id="linearGradient19"
       inkscape:label="Light"><stop
         style="stop-color:#000000;stop-opacity:0;"
         offset="0.49856374"
         id="stop18" /><stop
         style="stop-color:#f1f1f1;stop-opacity:1;"
         offset="1"
         id="stop19" /></linearGradient><linearGradient
       id="linearGradient14"
       inkscape:label="Shadow"><stop
         style="stop-color:#000000;stop-opacity:1;"
         offset="0.48013502"
         id="stop16" /><stop
         style="stop-color:#000000;stop-opacity:0;"
         offset="1"
         id="stop17" /></linearGradient><linearGradient
       id="linearGradient14-1"
       inkscape:label="Light"><stop
         style="stop-color:#ffffff;stop-opacity:0;"
         offset="0.49316442"
         id="stop14" /><stop
         style="stop-color:#ffffff;stop-opacity:1;"
         offset="1"
         id="stop15" /></linearGradient><filter
       inkscape:collect="always"
       style="color-interpolation-filters:sRGB"
       id="filter13"
       x="-0.11756281"
       y="-0.1175628"
       width="1.2351256"
       height="1.2351256"><feGaussianBlur
         inkscape:collect="always"
         stdDeviation="3.8820187"
         id="feGaussianBlur13" /></filter><linearGradient
       inkscape:collect="always"
       xlink:href="#linearGradient14"
       id="linearGradient15"
       x1="56.018421"
       y1="99.629135"
       x2="153.99411"
       y2="197.60481"
       gradientUnits="userSpaceOnUse" /><linearGradient
       inkscape:collect="always"
       xlink:href="#linearGradient14-1"
       id="linearGradient16"
       gradientUnits="userSpaceOnUse"
       x1="56.018421"
       y1="99.629135"
       x2="153.99411"
       y2="197.60481" /><linearGradient
       inkscape:collect="always"
       xlink:href="#linearGradient14"
       id="linearGradient33"
       gradientUnits="userSpaceOnUse"
       x1="56.018421"
       y1="99.629135"
       x2="153.99411"
       y2="197.60481" /><linearGradient
       inkscape:collect="always"
       xlink:href="#linearGradient14-1"
       id="linearGradient34"
       gradientUnits="userSpaceOnUse"
       x1="56.018421"
       y1="99.629135"
       x2="153.99411"
       y2="197.60481" /><filter
       inkscape:collect="always"
       style="color-interpolation-filters:sRGB"
       id="filter38"
       x="-0.11753367"
       y="-0.11753367"
       width="1.2350673"
       height="1.2350673"><feGaussianBlur
         inkscape:collect="always"
         stdDeviation="3.8810567"
         id="feGaussianBlur38" /></filter><filter
       inkscape:collect="always"
       style="color-interpolation-filters:sRGB"
       id="filter39"
       x="-0.11010389"
       y="-0.12610574"
       width="1.2202078"
       height="1.2522115"><feGaussianBlur
         inkscape:collect="always"
         stdDeviation="3.6356642"
         id="feGaussianBlur39" /></filter><linearGradient
       inkscape:collect="always"
       xlink:href="#linearGradient42"
       id="linearGradient40"
       x1="273.26498"
       y1="112.86133"
       x2="372.89716"
       y2="186.86198"
       gradientUnits="userSpaceOnUse" /><linearGradient
       inkscape:collect="always"
       xlink:href="#linearGradient14-1"
       id="linearGradient43"
       gradientUnits="userSpaceOnUse"
       x1="273.26498"
       y1="112.86133"
       x2="372.89716"
       y2="186.86198" /><linearGradient
       inkscape:collect="always"
       xlink:href="#linearGradient14"
       id="linearGradient11"
       gradientUnits="userSpaceOnUse"
       x1="56.018421"
       y1="99.629135"
       x2="153.99411"
       y2="197.60481" /><linearGradient
       inkscape:collect="always"
       xlink:href="#linearGradient14-1"
       id="linearGradient12"
       gradientUnits="userSpaceOnUse"
       x1="56.018421"
       y1="99.629135"
       x2="153.99411"
       y2="197.60481" /></defs><g
     inkscape:label="Layer 1"
     inkscape:groupmode="layer"
     id="layer1"
     transform="translate(40.049379,-40.208994)"><rect
       style="fill:#1e3895;fill-opacity:1;stroke:none;stroke-width:4.99998;stroke-linecap:square;stroke-linejoin:round;stroke-dasharray:none;paint-order:normal"
       id="rect19"
       width="496.33765"
       height="229.76826"
       x="-37.549389"
       y="42.708984"
       rx="5.0499206"
       ry="5.049921" /><g
       id="g19"
       transform="translate(-75.262997,9.0931378)"><path
         id="path13"
         style="baseline-shift:baseline;display:inline;overflow:visible;mix-blend-mode:normal;vector-effect:none;fill:url(#linearGradient15);fill-opacity:1;stroke-width:0.963379;stroke-linecap:square;stroke-linejoin:round;filter:url(#filter13);enable-background:accumulate;stop-color:#000000;stop-opacity:1"
         d="m 104.99979,108.87501 c -21.854895,0 -39.62497,17.77007 -39.624969,39.62497 -10e-7,21.8549 17.770074,39.62497 39.624969,39.62497 21.8549,0 39.62497,-17.77007 39.62497,-39.62497 0,-21.8549 -17.77007,-39.62497 -39.62497,-39.62497 z m 9.74721,6.38565 c 2.06045,0.60128 4.04112,1.38863 5.92212,2.3425 -1.881,-0.95387 -3.86167,-1.74122 -5.92212,-2.3425 z m -40.64403,17.57051 c -0.953869,1.88098 -1.741218,3.86117 -2.342492,5.9216 0.601272,-2.06043 1.388626,-4.04063 2.342492,-5.9216 z"
         transform="matrix(1.0380133,0,0,1.0380133,-3.9913875,-5.6449729)" /><path
         id="path15"
         style="baseline-shift:baseline;display:inline;overflow:visible;mix-blend-mode:normal;vector-effect:none;fill:url(#linearGradient16);fill-opacity:1;stroke-width:0.963379;stroke-linecap:square;stroke-linejoin:round;filter:url(#filter13);enable-background:accumulate;stop-color:#000000;stop-opacity:1"
         d="m 104.99979,108.87501 c -21.854895,0 -39.62497,17.77007 -39.624969,39.62497 -10e-7,21.8549 17.770074,39.62497 39.624969,39.62497 21.8549,0 39.62497,-17.77007 39.62497,-39.62497 0,-21.8549 -17.77007,-39.62497 -39.62497,-39.62497 z m 9.74721,6.38565 c 2.06045,0.60128 4.04112,1.38863 5.92212,2.3425 -1.881,-0.95387 -3.86167,-1.74122 -5.92212,-2.3425 z m -40.64403,17.57051 c -0.953869,1.88098 -1.741218,3.86117 -2.342492,5.9216 0.601272,-2.06043 1.388626,-4.04063 2.342492,-5.9216 z"
         transform="matrix(1.0380133,0,0,1.0380133,-3.9913875,-5.6449729)" /><circle
         style="fill:#00ff00;stroke:#008000;stroke-width:5;stroke-linecap:square;stroke-linejoin:round;stroke-dasharray:none;paint-order:normal"
         id="path3"
         cx="105.00001"
         cy="148.5"
         r="37.125408" /><g
         id="g7"><path
           style="fill:#ffffff;stroke-width:1"
           d="m 98.258038,170.57254 c -1.715863,0.6158 -3.333131,0.67906 -5.154619,0.20165 -1.176261,-0.3083 -1.488474,-0.44471 -2.30992,-1.00924 -1.561758,-1.0733 -2.439247,-2.10929 -3.847733,-4.5428 -1.021688,-1.76523 -2.488394,-5.00021 -3.006338,-6.63083 -0.151028,-0.47546 0.898827,-1.2993 4.261712,-3.34423 2.509071,-1.52574 4.624193,-2.60575 5.135397,-2.62222 0.298119,-0.01 0.757046,0.43465 2.72251,2.63548 0.894289,1.00137 1.806563,1.95396 2.027276,2.11686 0.553481,0.40852 1.287819,0.56085 1.903325,0.39484 0.948912,-0.25594 1.495062,-1.06185 2.748612,-4.05594 0.34982,-0.83555 0.91779,-2.27926 1.26216,-3.20824 1.91367,-5.16241 2.46825,-6.52892 3.51756,-8.66745 2.35238,-4.79425 4.88588,-7.87443 8.93703,-10.86543 0.66797,-0.49316 2.48064,-1.65918 4.02817,-2.59116 2.25616,-1.35876 2.83996,-1.74665 2.94638,-1.95763 0.14872,-0.29483 0.41162,-0.3962 1.29934,-0.50102 0.59636,-0.0704 1.04076,0.11617 1.28522,0.53959 0.18502,0.32045 -0.0663,0.95625 -0.59675,1.50956 -0.40268,0.42005 -0.45619,0.44975 -0.77764,0.43159 -0.91075,-0.0514 -5.4323,3.45842 -7.66856,5.95277 -1.98769,2.2171 -2.84831,4.11589 -4.58358,10.11284 -0.42951,1.48432 -1.0344,3.44229 -1.34421,4.35103 -0.30981,0.90873 -0.97469,2.94726 -1.47751,4.53006 -1.63337,5.14166 -2.33416,7.07939 -3.45573,9.55544 -0.95451,2.1072 -2.46138,4.12654 -4.1019,5.49692 -0.91193,0.76176 -2.679084,1.78315 -3.750202,2.16756 z"
           id="path2" /><path
           style="fill:#ffffff;stroke:none;stroke-width:2.64583;stroke-linecap:square;stroke-linejoin:round;paint-order:stroke markers fill"
           d="m 86.382346,151.42489 c 0,0 -2.986102,-5.61094 -2.777099,-8.62362 0.166645,-2.4021 2.880141,-4.11071 3.142507,-6.50425 0.242726,-2.21436 -1.534713,-6.50426 -1.534713,-6.50426 0,0 4.767393,5.03061 4.7503,8.18513 -0.01213,2.23928 -2.820578,3.62002 -3.434832,5.77344 -0.701759,2.46019 -0.146163,7.67356 -0.146163,7.67356 z"
           id="path4"
           sodipodi:nodetypes="caacaac" /></g></g><g
       id="g44"
       transform="translate(-174.60973,13.020027)"><rect
         style="fill:none;fill-opacity:1;stroke:none;stroke-width:4.99999;stroke-linecap:square;stroke-linejoin:round;stroke-dasharray:none;stroke-opacity:1;paint-order:normal"
         id="rect44"
         width="101.60451"
         height="101.60451"
         x="274.13269"
         y="93.770836"
         rx="0"
         ry="0" /><g
         id="g43"><path
           id="path42"
           style="baseline-shift:baseline;display:inline;overflow:visible;vector-effect:none;fill:url(#linearGradient43);fill-opacity:1;stroke-linecap:square;stroke-linejoin:round;paint-order:fill markers stroke;filter:url(#filter39);enable-background:accumulate;stop-color:#000000;stop-opacity:1"
           d="m 324.93469,109.97675 a 2.5022363,2.4982754 0 0 0 -2.16679,1.24902 l -18.56115,32.0983 -18.56114,32.0983 a 2.5022363,2.4982754 0 0 0 2.16731,3.74706 h 37.12177 37.12228 a 2.5022363,2.4982754 0 0 0 2.16731,-3.74706 l -18.56114,-32.0983 -18.56114,-32.0983 a 2.5022363,2.4982754 0 0 0 -2.16731,-1.24902 z" /><path
           id="path38"
           style="baseline-shift:baseline;display:inline;overflow:visible;vector-effect:none;fill:url(#linearGradient40);fill-opacity:1;stroke-linecap:square;stroke-linejoin:round;paint-order:fill markers stroke;filter:url(#filter39);enable-background:accumulate;stop-color:#000000;stop-opacity:1"
           d="m 324.93469,109.97675 a 2.5022363,2.4982754 0 0 0 -2.16679,1.24902 l -18.56115,32.0983 -18.56114,32.0983 a 2.5022363,2.4982754 0 0 0 2.16731,3.74706 h 37.12177 37.12228 a 2.5022363,2.4982754 0 0 0 2.16731,-3.74706 l -18.56114,-32.0983 -18.56114,-32.0983 a 2.5022363,2.4982754 0 0 0 -2.16731,-1.24902 z" /><path
           sodipodi:type="star"
           style="fill:#ffcc00;stroke:#d4aa00;stroke-width:5.98427;stroke-linecap:square;stroke-linejoin:round;stroke-dasharray:none;paint-order:fill markers stroke"
           id="path8"
           inkscape:flatsided="false"
           sodipodi:sides="3"
           sodipodi:cx="284.01367"
           sodipodi:cy="85.162758"
           sodipodi:r1="51.26302"
           sodipodi:r2="25.63151"
           sodipodi:arg1="-1.5707963"
           sodipodi:arg2="-0.52359878"
           inkscape:rounded="0"
           inkscape:randomized="0"
           d="m 284.01367,33.899738 22.19754,38.447265 22.19754,38.447267 -44.39508,0 -44.39508,0 22.19754,-38.447267 z"
           inkscape:transform-center-y="-10.699419"
           transform="matrix(0.83618754,0,0,0.8348639,87.446203,84.172565)" /><path
           style="fill:#ffffff;stroke-width:0.999998"
           d="m 323.78857,170.2519 c -1.38144,-0.51508 -2.30084,-1.55553 -2.58528,-2.92564 -0.47763,-2.30074 1.33542,-4.47512 3.73146,-4.47512 2.82077,0 4.64047,2.8954 3.40576,5.41905 -0.40976,0.83752 -0.90301,1.32693 -1.79702,1.78303 -0.71643,0.36549 -2.04968,0.46164 -2.75492,0.19868 z m 0.40083,-10.72036 c -0.48021,-0.15221 -1.13533,-0.75042 -1.42099,-1.29756 -0.28376,-0.54351 -2.42626,-20.8714 -2.35307,-22.32584 0.0657,-1.30501 0.42348,-2.13367 1.29898,-3.00828 1.01574,-1.01472 1.79746,-1.33998 3.22043,-1.33998 1.42297,0 2.20469,0.32526 3.22042,1.33998 0.8755,0.87461 1.23332,1.70327 1.29898,3.00828 0.0338,0.67115 -0.33532,4.71973 -1.04799,11.49532 -1.20486,11.45497 -1.14738,11.13738 -2.1388,11.81671 -0.51244,0.35113 -1.49025,0.49765 -2.07796,0.31137 z"
           id="path9"
           sodipodi:nodetypes="ssssssssssssssss" /></g></g><g
       id="g34"
       transform="translate(63.387814,9.0931378)"><path
         id="path29"
         style="baseline-shift:baseline;display:inline;overflow:visible;mix-blend-mode:normal;vector-effect:none;fill:url(#linearGradient33);fill-opacity:1;stroke-width:0.963379;stroke-linecap:square;stroke-linejoin:round;filter:url(#filter13);enable-background:accumulate;stop-color:#000000"
         d="m 104.99979,108.87501 c -21.854895,0 -39.62497,17.77007 -39.624969,39.62497 -10e-7,21.8549 17.770074,39.62497 39.624969,39.62497 21.8549,0 39.62497,-17.77007 39.62497,-39.62497 0,-21.8549 -17.77007,-39.62497 -39.62497,-39.62497 z m 9.74721,6.38565 c 2.06045,0.60128 4.04112,1.38863 5.92212,2.3425 -1.881,-0.95387 -3.86167,-1.74122 -5.92212,-2.3425 z m -40.64403,17.57051 c -0.953869,1.88098 -1.741218,3.86117 -2.342492,5.9216 0.601272,-2.06043 1.388626,-4.04063 2.342492,-5.9216 z"
         transform="matrix(1.0380133,0,0,1.0380133,98.534652,-5.6449729)" /><path
         id="path30"
         style="baseline-shift:baseline;display:inline;overflow:visible;mix-blend-mode:normal;vector-effect:none;fill:url(#linearGradient34);fill-opacity:1;stroke-width:0.963379;stroke-linecap:square;stroke-linejoin:round;filter:url(#filter38);enable-background:accumulate;stop-color:#000000"
         d="m 104.99979,108.87501 c -21.854895,0 -39.62497,17.77007 -39.624969,39.62497 -10e-7,21.8549 17.770074,39.62497 39.624969,39.62497 21.8549,0 39.62497,-17.77007 39.62497,-39.62497 0,-21.8549 -17.77007,-39.62497 -39.62497,-39.62497 z m 9.74721,6.38565 c 2.06045,0.60128 4.04112,1.38863 5.92212,2.3425 -1.881,-0.95387 -3.86167,-1.74122 -5.92212,-2.3425 z m -40.64403,17.57051 c -0.953869,1.88098 -1.741218,3.86117 -2.342492,5.9216 0.601272,-2.06043 1.388626,-4.04063 2.342492,-5.9216 z"
         transform="matrix(1.0380133,0,0,1.0380133,98.534652,-5.6449729)" /><circle
         style="fill:#ff0000;fill-opacity:1;stroke:#800000;stroke-width:5;stroke-linecap:square;stroke-linejoin:round;stroke-dasharray:none;stroke-opacity:1;paint-order:normal"
         id="circle30"
         cx="207.52605"
         cy="148.5"
         r="37.125408" /><g
         id="g32"
         transform="translate(102.52604)"><path
           style="fill:#ffffff;stroke-width:1"
           d="m 98.258038,170.57254 c -1.715863,0.6158 -3.333131,0.67906 -5.154619,0.20165 -1.176261,-0.3083 -1.488474,-0.44471 -2.30992,-1.00924 -1.561758,-1.0733 -2.439247,-2.10929 -3.847733,-4.5428 -1.021688,-1.76523 -2.488394,-5.00021 -3.006338,-6.63083 -0.151028,-0.47546 0.898827,-1.2993 4.261712,-3.34423 2.509071,-1.52574 4.624193,-2.60575 5.135397,-2.62222 0.298119,-0.01 0.757046,0.43465 2.72251,2.63548 0.894289,1.00137 1.806563,1.95396 2.027276,2.11686 0.553481,0.40852 1.287819,0.56085 1.903325,0.39484 0.948912,-0.25594 1.495062,-1.06185 2.748612,-4.05594 0.34982,-0.83555 0.91779,-2.27926 1.26216,-3.20824 1.91367,-5.16241 2.46825,-6.52892 3.51756,-8.66745 2.35238,-4.79425 4.88588,-7.87443 8.93703,-10.86543 0.66797,-0.49316 2.48064,-1.65918 4.02817,-2.59116 2.25616,-1.35876 2.83996,-1.74665 2.94638,-1.95763 0.14872,-0.29483 0.41162,-0.3962 1.29934,-0.50102 0.59636,-0.0704 1.04076,0.11617 1.28522,0.53959 0.18502,0.32045 -0.0663,0.95625 -0.59675,1.50956 -0.40268,0.42005 -0.45619,0.44975 -0.77764,0.43159 -0.91075,-0.0514 -5.4323,3.45842 -7.66856,5.95277 -1.98769,2.2171 -2.84831,4.11589 -4.58358,10.11284 -0.42951,1.48432 -1.0344,3.44229 -1.34421,4.35103 -0.30981,0.90873 -0.97469,2.94726 -1.47751,4.53006 -1.63337,5.14166 -2.33416,7.07939 -3.45573,9.55544 -0.95451,2.1072 -2.46138,4.12654 -4.1019,5.49692 -0.91193,0.76176 -2.679084,1.78315 -3.750202,2.16756 z"
           id="path31" /><path
           style="fill:#ffffff;stroke:none;stroke-width:2.64583;stroke-linecap:square;stroke-linejoin:round;paint-order:stroke markers fill"
           d="m 86.382346,151.42489 c 0,0 -2.986102,-5.61094 -2.777099,-8.62362 0.166645,-2.4021 2.880141,-4.11071 3.142507,-6.50425 0.242726,-2.21436 -1.534713,-6.50426 -1.534713,-6.50426 0,0 4.767393,5.03061 4.7503,8.18513 -0.01213,2.23928 -2.820578,3.62002 -3.434832,5.77344 -0.701759,2.46019 -0.146163,7.67356 -0.146163,7.67356 z"
           id="path32"
           sodipodi:nodetypes="caacaac" /></g><path
         id="path7"
         style="fill:#800000;stroke:none;stroke-width:2.64583;stroke-linecap:square;stroke-linejoin:round;paint-order:stroke markers fill"
         d="m 188.63534,116.19575 a 37.606676,37.606676 0 0 0 -5.47908,3.87992 l 4.04637,13.2321 6.0706,-0.59256 2.81309,11.40051 7.99485,1.77663 1.77716,15.69448 12.73272,0.88832 1.03646,13.32475 7.50647,5.00431 a 37.606676,37.606676 0 0 0 4.76142,-3.44386 l -5.90152,-4.96557 -1.33222,-14.50988 -14.50988,-2.07239 1.1846,-15.25007 -10.21591,-1.18459 -0.29628,-13.32528 -9.77202,1.33274 z" /></g><g
       id="g27"><path
         id="path1"
         style="baseline-shift:baseline;display:inline;overflow:visible;mix-blend-mode:normal;vector-effect:none;fill:url(#linearGradient11);fill-opacity:1;stroke-width:0.963379;stroke-linecap:square;stroke-linejoin:round;filter:url(#filter13);enable-background:accumulate;stop-color:#000000"
         d="m 104.99979,108.87501 c -21.854895,0 -39.62497,17.77007 -39.624969,39.62497 -10e-7,21.8549 17.770074,39.62497 39.624969,39.62497 21.8549,0 39.62497,-17.77007 39.62497,-39.62497 0,-21.8549 -17.77007,-39.62497 -39.62497,-39.62497 z m 9.74721,6.38565 c 2.06045,0.60128 4.04112,1.38863 5.92212,2.3425 -1.881,-0.95387 -3.86167,-1.74122 -5.92212,-2.3425 z m -40.64403,17.57051 c -0.953869,1.88098 -1.741218,3.86117 -2.342492,5.9216 0.601272,-2.06043 1.388626,-4.04063 2.342492,-5.9216 z"
         transform="matrix(1.0380133,0,0,1.0380133,282.51089,3.4481649)" /><path
         id="path5"
         style="baseline-shift:baseline;display:inline;overflow:visible;mix-blend-mode:normal;vector-effect:none;fill:url(#linearGradient12);fill-opacity:1;stroke-width:0.963379;stroke-linecap:square;stroke-linejoin:round;filter:url(#filter13);enable-background:accumulate;stop-color:#000000"
         d="m 104.99979,108.87501 c -21.854895,0 -39.62497,17.77007 -39.624969,39.62497 -10e-7,21.8549 17.770074,39.62497 39.624969,39.62497 21.8549,0 39.62497,-17.77007 39.62497,-39.62497 0,-21.8549 -17.77007,-39.62497 -39.62497,-39.62497 z m 9.74721,6.38565 c 2.06045,0.60128 4.04112,1.38863 5.92212,2.3425 -1.881,-0.95387 -3.86167,-1.74122 -5.92212,-2.3425 z m -40.64403,17.57051 c -0.953869,1.88098 -1.741218,3.86117 -2.342492,5.9216 0.601272,-2.06043 1.388626,-4.04063 2.342492,-5.9216 z"
         transform="matrix(1.0380133,0,0,1.0380133,282.51089,3.4481649)" /><circle
         style="fill:#cccccc;stroke:#4d4d4d;stroke-width:5;stroke-linecap:square;stroke-linejoin:round;stroke-dasharray:none;paint-order:normal"
         id="circle5"
         cx="391.50229"
         cy="157.59314"
         r="37.125408" /><text
         xml:space="preserve"
         style="font-style:normal;font-variant:normal;font-weight:normal;font-stretch:normal;font-size:79.3521px;line-height:1.25;font-family:Caladea;-inkscape-font-specification:Caladea;text-align:center;text-decoration-color:#000000;letter-spacing:0px;word-spacing:0px;writing-mode:lr-tb;direction:ltr;text-anchor:middle;fill:#ffffff;stroke:#ffffff;stroke-width:0.264583;-inkscape-stroke:none"
         x="385.10388"
         y="184.73782"
         id="text25"
         transform="scale(1.0166148,0.98365677)"><tspan
           sodipodi:role="line"
           id="tspan25"
           style="font-style:normal;font-variant:normal;font-weight:normal;font-stretch:normal;font-family:Manjari;-inkscape-font-specification:Manjari;fill:#ffffff;stroke:#ffffff;stroke-width:0.264583"
           x="385.10388"
           y="184.73782">?</tspan></text></g></g></svg>
