<?xml version="1.0" encoding="UTF-8"?>
<!-- Created with Inkscape (http://www.inkscape.org/) -->
<svg width="101.6mm" height="101.6mm" version="1.1" viewBox="0 0 101.6 101.6" xml:space="preserve" xmlns="http://www.w3.org/2000/svg" xmlns:xlink="http://www.w3.org/1999/xlink"><defs><filter id="filter39" x="-.1101" y="-.12611" width="1.2202" height="1.2522" color-interpolation-filters="sRGB"><feGaussianBlur stdDeviation="3.6356642"/></filter><linearGradient id="linearGradient40" x1="273.26" x2="372.9" y1="112.86" y2="186.86" gradientUnits="userSpaceOnUse"><stop offset=".50711"/><stop stop-opacity="0" offset="1"/></linearGradient><linearGradient id="linearGradient43" x1="273.26" x2="372.9" y1="112.86" y2="186.86" gradientUnits="userSpaceOnUse"><stop stop-color="#fff" stop-opacity="0" offset=".49316"/><stop stop-color="#fff" offset="1"/></linearGradient></defs><g transform="translate(-159.82 -106.79)"><g transform="translate(-114.32 13.02)"><rect x="274.13" y="93.771" width="101.6" height="101.6" rx="0" ry="0" fill="none" style="paint-order:normal"/><g stroke-linecap="square" stroke-linejoin="round"><path d="m324.93 109.98a2.5022 2.4983 0 0 0-2.1668 1.249l-37.122 64.197a2.5022 2.4983 0 0 0 2.1673 3.7471h74.244a2.5022 2.4983 0 0 0 2.1673-3.7471l-37.122-64.197a2.5022 2.4983 0 0 0-2.1673-1.249z" fill="url(#linearGradient43)" filter="url(#filter39)" stop-color="#000000" style="paint-order:fill markers stroke"/><path d="m324.93 109.98a2.5022 2.4983 0 0 0-2.1668 1.249l-37.122 64.197a2.5022 2.4983 0 0 0 2.1673 3.7471h74.244a2.5022 2.4983 0 0 0 2.1673-3.7471l-37.122-64.197a2.5022 2.4983 0 0 0-2.1673-1.249z" fill="url(#linearGradient40)" filter="url(#filter39)" stop-color="#000000" style="paint-order:fill markers stroke"/><path transform="matrix(.83619 0 0 .83486 87.446 84.173)" d="m284.01 33.9 44.395 76.895h-44.395-44.395l22.198-38.447z" fill="#fc0" stroke="#d4aa00" stroke-width="5.9843" style="paint-order:fill markers stroke"/></g><path d="m323.79 170.25c-1.3814-0.51508-2.3008-1.5555-2.5853-2.9256-0.47763-2.3007 1.3354-4.4751 3.7315-4.4751 2.8208 0 4.6405 2.8954 3.4058 5.419-0.40976 0.83752-0.90301 1.3269-1.797 1.783-0.71643 0.36549-2.0497 0.46164-2.7549 0.19868zm0.40083-10.72c-0.48021-0.15221-1.1353-0.75042-1.421-1.2976-0.28376-0.54351-2.4263-20.871-2.3531-22.326 0.0657-1.305 0.42348-2.1337 1.299-3.0083 1.0157-1.0147 1.7975-1.34 3.2204-1.34s2.2047 0.32526 3.2204 1.34c0.8755 0.87461 1.2333 1.7033 1.299 3.0083 0.0338 0.67115-0.33532 4.7197-1.048 11.495-1.2049 11.455-1.1474 11.137-2.1388 11.817-0.51244 0.35113-1.4902 0.49765-2.078 0.31137z" fill="#fff"/></g></g></svg>
